<svg id="Õ_1" data-name="Õº≤„ 1" xmlns="http://www.w3.org/2000/svg" viewBox="0 0 103.67 72.81"><defs><style>.cls-1,.cls-2{fill:#231f20;}.cls-1{fill-rule:evenodd;}</style></defs><title>logo-vertical</title><path class="cls-1" d="M299,256.52v-3.91h-4.18v-3.78H299V235.4h7.64c11.23,0,11.21,17.21,0,17.21h-3.86v3.91Zm3.78-17.34v9.65h3.86c6.3,0,6.28-9.65,0-9.65Z" transform="translate(-249.06 -230.98)"/><path class="cls-1" d="M286.75,244.93v21.12h7.63a8.07,8.07,0,0,0,8.36-7.56H299a4.49,4.49,0,0,1-4.62,3.77h-3.85v-9.65h2.41v-3.78h-2.41v-3.9Z" transform="translate(-249.06 -230.98)"/><path class="cls-1" d="M282.33,231v39.48h37.12V231Zm2.52,2.53h32.08v34.43H284.85Z" transform="translate(-249.06 -230.98)"/><path class="cls-2" d="M250.28,291.45V277.27h6.24a19.38,19.38,0,0,1,2.51.13,5.51,5.51,0,0,1,2,.67,3.65,3.65,0,0,1,1.33,1.37,3.86,3.86,0,0,1,.5,1.93,4.06,4.06,0,0,1-1.34,3.07q-1.35,1.24-4.85,1.25h-4.24v5.76Zm2.19-7.44h4.27a5.09,5.09,0,0,0,3-.67,2.26,2.26,0,0,0,.89-1.91,2.34,2.34,0,0,0-.52-1.53,2.46,2.46,0,0,0-1.38-.83,11.11,11.11,0,0,0-2-.13h-4.23V284Zm12.68,7.44V277.27h7.32a11.37,11.37,0,0,1,3.36.38,3.68,3.68,0,0,1,2.53,3.49,3.29,3.29,0,0,1-1.14,2.54A6.26,6.26,0,0,1,273.7,285a5.59,5.59,0,0,1,1.32.71,10.54,10.54,0,0,1,1.82,1.88l2.87,3.86H277l-2.18-2.95q-1-1.28-1.59-1.95a4.79,4.79,0,0,0-1.1-.95,3.6,3.6,0,0,0-1-.38,8.7,8.7,0,0,0-1.22-.06h-2.54v6.29Zm2.18-7.92H272a8,8,0,0,0,2.34-.27,2.48,2.48,0,0,0,1.28-.85,2,2,0,0,0,.44-1.27,2,2,0,0,0-.85-1.65,4.38,4.38,0,0,0-2.69-.65h-5.23v4.69Zm13.22,1a7.07,7.07,0,0,1,2.21-5.52,8.18,8.18,0,0,1,5.71-2,8.86,8.86,0,0,1,4.12.94,6.52,6.52,0,0,1,2.8,2.62,7.87,7.87,0,0,1-.05,7.66,6.43,6.43,0,0,1-2.87,2.58,9.36,9.36,0,0,1-4,.87,8.91,8.91,0,0,1-4.18-1,6.72,6.72,0,0,1-2.78-2.65,7.07,7.07,0,0,1-.95-3.54Zm2.26,0a5.19,5.19,0,0,0,1.6,4,6.27,6.27,0,0,0,8.1,0,5.5,5.5,0,0,0,1.59-4.23,6.44,6.44,0,0,0-.68-3,4.82,4.82,0,0,0-2-2,6.51,6.51,0,0,0-6.95.66c-1.12.92-1.67,2.44-1.67,4.57Zm14.68,2.86,2-.23a3.25,3.25,0,0,0,.71,2.22,2.46,2.46,0,0,0,1.75.6,3,3,0,0,0,1.42-.32,1.74,1.74,0,0,0,.82-.88,5.15,5.15,0,0,0,.23-1.78v-9.77h2.19v9.67a6.19,6.19,0,0,1-.5,2.75,3.35,3.35,0,0,1-1.59,1.49,6,6,0,0,1-2.56.51,4.7,4.7,0,0,1-3.33-1.07,4,4,0,0,1-1.11-3.19Zm12.14,4V277.27h11.95v1.67h-9.77v4.35H321V285h-9.15v4.83H322v1.67Zm26.57-5,2.19.48a6.28,6.28,0,0,1-2.47,3.52,7.61,7.61,0,0,1-4.37,1.21,8.91,8.91,0,0,1-4.35-.93,6.06,6.06,0,0,1-2.55-2.7,8.52,8.52,0,0,1-.87-3.81,7.46,7.46,0,0,1,1-3.86,6.41,6.41,0,0,1,2.81-2.51,9.33,9.33,0,0,1,4-.85,7.61,7.61,0,0,1,4.17,1.08,5.72,5.72,0,0,1,2.36,3.05l-2.15.44a4.4,4.4,0,0,0-1.67-2.26,5,5,0,0,0-2.76-.71,5.93,5.93,0,0,0-3.18.79,4.27,4.27,0,0,0-1.8,2.1,7.88,7.88,0,0,0,.1,5.88,4.08,4.08,0,0,0,1.91,2,6,6,0,0,0,2.81.67,5.27,5.27,0,0,0,3.11-.91,4.54,4.54,0,0,0,1.72-2.7Zm8.52,5V278.94h-5.45v-1.67h13.11v1.67h-5.47v12.51Zm-95.66,7.66,1.11-.09a1.9,1.9,0,0,0,.36.94,2,2,0,0,0,.9.59,3.66,3.66,0,0,0,1.36.23,3.88,3.88,0,0,0,1.19-.17,1.75,1.75,0,0,0,.77-.47,1,1,0,0,0,.25-.65.92.92,0,0,0-.24-.63,1.87,1.87,0,0,0-.8-.45,15.41,15.41,0,0,0-1.59-.37,9.17,9.17,0,0,1-1.71-.48,2.33,2.33,0,0,1-.95-.71,1.55,1.55,0,0,1-.31-1,1.74,1.74,0,0,1,.38-1.08,2.35,2.35,0,0,1,1.11-.76,5,5,0,0,1,1.64-.26,5.13,5.13,0,0,1,1.74.27,2.44,2.44,0,0,1,1.16.81,2.07,2.07,0,0,1,.44,1.2l-1.13.07a1.48,1.48,0,0,0-.62-1.09,2.63,2.63,0,0,0-1.54-.37A2.85,2.85,0,0,0,251,295a1,1,0,0,0-.49.81.83.83,0,0,0,.35.68,4.9,4.9,0,0,0,1.77.54,13.6,13.6,0,0,1,2,.49,2.5,2.5,0,0,1,1.14.78,1.67,1.67,0,0,1,.37,1.08,1.87,1.87,0,0,1-.4,1.15,2.61,2.61,0,0,1-1.17.84,4.65,4.65,0,0,1-1.71.3,5.61,5.61,0,0,1-2-.31,2.76,2.76,0,0,1-1.28-.9,2.31,2.31,0,0,1-.49-1.37ZM277,295v-1.08h1.1V295Zm0,6.55V296h1.1v5.53Zm21.39,0,2.35-2.88L298.52,296h1.37l1,1.3c.18.24.33.45.44.62.18-.23.34-.44.5-.61L302.9,296h1.3l-2.22,2.6,2.39,2.93H303l-1.32-1.72-.35-.46-1.69,2.18Zm28.67-.84.16.83a5.25,5.25,0,0,1-.82.08,2.13,2.13,0,0,1-.93-.16A1,1,0,0,1,325,301a2.86,2.86,0,0,1-.13-1.1v-3.18H324V296h.8v-1.37l1.09-.56V296H327v.73h-1.09V300a1.37,1.37,0,0,0,.05.51.44.44,0,0,0,.19.19.9.9,0,0,0,.37.07l.48,0Zm20.38,3-.12-.88a2.57,2.57,0,0,0,.62.09,1.33,1.33,0,0,0,.58-.11.86.86,0,0,0,.36-.29,3.7,3.7,0,0,0,.33-.69c0-.06.06-.13.1-.23L346.83,296H348l1.35,3.2c.17.41.32.83.46,1.28q.19-.64.45-1.26l1.38-3.22h1.09l-2.45,5.62a10.48,10.48,0,0,1-.61,1.25,2,2,0,0,1-.67.68,1.72,1.72,0,0,1-.9.22A2.39,2.39,0,0,1,347.4,303.68Z" transform="translate(-249.06 -230.98)"/></svg>